<svg width="400" height="200" xmlns="http://www.w3.org/2000/svg">
  <!-- Background gradient -->
  <defs>
    <linearGradient id="grad1" x1="0%" y1="0%" x2="100%" y2="100%">
      <stop offset="0%" style="stop-color:#059669;stop-opacity:0.8" />
      <stop offset="100%" style="stop-color:#0891B2;stop-opacity:0.9" />
    </linearGradient>
  </defs>
  
  <!-- Background rectangle -->
  <rect width="100%" height="100%" fill="url(#grad1)" />
  
  <!-- Ocean/beach -->
  <path d="M0,140 Q100,130 200,140 Q300,150 400,140 L400,200 L0,200 Z" fill="#0891B2" opacity="0.5" />
  
  <!-- Sand -->
  <path d="M0,150 Q100,140 200,150 Q300,160 400,150 L400,200 L0,200 Z" fill="#FBBF24" opacity="0.3" />
  
  <!-- Mountains/hills -->
  <path d="M0,100 Q50,70 100,90 Q150,60 200,80 Q250,50 300,70 Q350,40 400,60 L400,140 Q300,150 200,140 Q100,130 0,140 Z" fill="#065F46" opacity="0.6" />
  
  <!-- Palm trees -->
  <!-- Tree 1 -->
  <rect x="50" y="130" width="6" height="20" fill="#7C2D12" opacity="0.8" />
  <path d="M53,130 Q40,120 30,125 Q45,115 35,110 Q50,105 45,95 Q60,100 70,90 Q65,105 80,100 Q70,110 85,115 Q70,115 75,125 Q60,120 53,130" fill="#059669" opacity="0.8" />
  
  <!-- Tree 2 -->
  <rect x="350" y="130" width="6" height="20" fill="#7C2D12" opacity="0.8" />
  <path d="M353,130 Q340,120 330,125 Q345,115 335,110 Q350,105 345,95 Q360,100 370,90 Q365,105 380,100 Q370,110 385,115 Q370,115 375,125 Q360,120 353,130" fill="#059669" opacity="0.8" />
  
  <!-- Balinese temple silhouette -->
  <path d="M180,90 L220,90 L220,120 L180,120 Z" fill="#7C2D12" opacity="0.7" />
  <path d="M175,90 L225,90 L225,95 L175,95 Z" fill="#7C2D12" opacity="0.7" />
  <path d="M170,85 L230,85 L230,90 L170,90 Z" fill="#7C2D12" opacity="0.7" />
  <path d="M190,70 L210,70 L210,85 L190,85 Z" fill="#7C2D12" opacity="0.7" />
  <path d="M185,65 L215,65 L215,70 L185,70 Z" fill="#7C2D12" opacity="0.7" />
  <path d="M195,55 L205,55 L205,65 L195,65 Z" fill="#7C2D12" opacity="0.7" />
  <path d="M190,50 L210,50 L200,40 L190,50 Z" fill="#7C2D12" opacity="0.7" />
  
  <!-- Small boats -->
  <path d="M100,160 Q105,155 110,160 L115,160 Q120,155 125,160 L100,160 Z" fill="#7C2D12" opacity="0.7" />
  <path d="M300,165 Q305,160 310,165 L315,165 Q320,160 325,165 L300,165 Z" fill="#7C2D12" opacity="0.7" />
  
  <!-- Sun -->
  <circle cx="350" cy="50" r="20" fill="#FBBF24" opacity="0.7" />
  
  <!-- Birds -->
  <path d="M120,40 Q125,35 130,40 Q135,35 140,40" stroke="white" stroke-width="1" opacity="0.6" fill="none" />
  <path d="M280,60 Q285,55 290,60 Q295,55 300,60" stroke="white" stroke-width="1" opacity="0.6" fill="none" />
  <path d="M150,50 Q155,45 160,50 Q165,45 170,50" stroke="white" stroke-width="1" opacity="0.6" fill="none" />
  
  <!-- Text -->
  <text x="200" y="180" font-family="Arial" font-size="16" fill="white" text-anchor="middle" opacity="0.9">Bali, Indonesia</text>
</svg>