<svg width="400" height="200" xmlns="http://www.w3.org/2000/svg">
  <!-- Background gradient -->
  <defs>
    <linearGradient id="grad1" x1="0%" y1="0%" x2="100%" y2="100%">
      <stop offset="0%" style="stop-color:#0369A1;stop-opacity:0.8" />
      <stop offset="100%" style="stop-color:#1E40AF;stop-opacity:0.9" />
    </linearGradient>
  </defs>
  
  <!-- Background rectangle -->
  <rect width="100%" height="100%" fill="url(#grad1)" />
  
  <!-- New York skyline -->
  <!-- Empire State Building -->
  <rect x="180" y="50" width="40" height="120" fill="#1F2937" opacity="0.7" />
  <rect x="190" y="30" width="20" height="20" fill="#1F2937" opacity="0.7" />
  <rect x="195" y="10" width="10" height="20" fill="#1F2937" opacity="0.7" />
  
  <!-- Freedom Tower -->
  <polygon points="100,60 120,60 110,20 100,60" fill="#1F2937" opacity="0.7" />
  <rect x="90" y="60" width="40" height="110" fill="#1F2937" opacity="0.7" />
  
  <!-- Chrysler Building -->
  <polygon points="280,70 300,70 290,40 280,70" fill="#1F2937" opacity="0.7" />
  <rect x="270" y="70" width="40" height="100" fill="#1F2937" opacity="0.7" />
  
  <!-- Other buildings -->
  <rect x="20" y="100" width="30" height="70" fill="#1F2937" opacity="0.7" />
  <rect x="60" y="80" width="20" height="90" fill="#1F2937" opacity="0.7" />
  <rect x="140" y="90" width="30" height="80" fill="#1F2937" opacity="0.7" />
  <rect x="230" y="110" width="30" height="60" fill="#1F2937" opacity="0.7" />
  <rect x="320" y="90" width="25" height="80" fill="#1F2937" opacity="0.7" />
  <rect x="355" y="120" width="30" height="50" fill="#1F2937" opacity="0.7" />
  
  <!-- Windows (lights) -->
  <rect x="25" y="105" width="5" height="5" fill="white" opacity="0.5" />
  <rect x="35" y="105" width="5" height="5" fill="white" opacity="0.5" />
  <rect x="25" y="115" width="5" height="5" fill="white" opacity="0.5" />
  <rect x="35" y="115" width="5" height="5" fill="white" opacity="0.5" />
  <rect x="25" y="125" width="5" height="5" fill="white" opacity="0.5" />
  <rect x="35" y="125" width="5" height="5" fill="white" opacity="0.5" />
  <rect x="25" y="135" width="5" height="5" fill="white" opacity="0.5" />
  <rect x="35" y="135" width="5" height="5" fill="white" opacity="0.5" />
  
  <rect x="65" y="85" width="5" height="5" fill="white" opacity="0.5" />
  <rect x="75" y="85" width="5" height="5" fill="white" opacity="0.5" />
  <rect x="65" y="95" width="5" height="5" fill="white" opacity="0.5" />
  <rect x="75" y="95" width="5" height="5" fill="white" opacity="0.5" />
  <rect x="65" y="105" width="5" height="5" fill="white" opacity="0.5" />
  <rect x="75" y="105" width="5" height="5" fill="white" opacity="0.5" />
  
  <rect x="145" y="95" width="5" height="5" fill="white" opacity="0.5" />
  <rect x="155" y="95" width="5" height="5" fill="white" opacity="0.5" />
  <rect x="145" y="105" width="5" height="5" fill="white" opacity="0.5" />
  <rect x="155" y="105" width="5" height="5" fill="white" opacity="0.5" />
  <rect x="145" y="115" width="5" height="5" fill="white" opacity="0.5" />
  <rect x="155" y="115" width="5" height="5" fill="white" opacity="0.5" />
  
  <rect x="185" y="55" width="5" height="5" fill="white" opacity="0.5" />
  <rect x="195" y="55" width="5" height="5" fill="white" opacity="0.5" />
  <rect x="205" y="55" width="5" height="5" fill="white" opacity="0.5" />
  <rect x="185" y="65" width="5" height="5" fill="white" opacity="0.5" />
  <rect x="195" y="65" width="5" height="5" fill="white" opacity="0.5" />
  <rect x="205" y="65" width="5" height="5" fill="white" opacity="0.5" />
  
  <rect x="275" y="75" width="5" height="5" fill="white" opacity="0.5" />
  <rect x="285" y="75" width="5" height="5" fill="white" opacity="0.5" />
  <rect x="295" y="75" width="5" height="5" fill="white" opacity="0.5" />
  <rect x="275" y="85" width="5" height="5" fill="white" opacity="0.5" />
  <rect x="285" y="85" width="5" height="5" fill="white" opacity="0.5" />
  <rect x="295" y="85" width="5" height="5" fill="white" opacity="0.5" />
  
  <!-- Statue of Liberty (simplified) -->
  <rect x="40" y="140" width="5" height="20" fill="#4ADE80" opacity="0.7" />
  <polygon points="35,140 50,140 42.5,130" fill="#4ADE80" opacity="0.7" />
  <circle cx="42.5" cy="125" r="5" fill="#4ADE80" opacity="0.7" />
  
  <!-- Text -->
  <text x="200" y="180" font-family="Arial" font-size="16" fill="white" text-anchor="middle" opacity="0.9">New York, USA</text>
</svg>