<svg width="400" height="200" xmlns="http://www.w3.org/2000/svg">
  <!-- Background gradient -->
  <defs>
    <linearGradient id="grad1" x1="0%" y1="0%" x2="100%" y2="100%">
      <stop offset="0%" style="stop-color:#6D28D9;stop-opacity:0.8" />
      <stop offset="100%" style="stop-color:#4F46E5;stop-opacity:0.9" />
    </linearGradient>
  </defs>
  
  <!-- Background rectangle -->
  <rect width="100%" height="100%" fill="url(#grad1)" />
  
  <!-- Eiffel Tower silhouette -->
  <path d="M200,30 L220,170 L240,170 L260,30 L200,30 Z" fill="none" stroke="white" stroke-width="2" opacity="0.6" />
  <path d="M180,170 L280,170 L270,190 L190,190 L180,170 Z" fill="white" opacity="0.6" />
  <path d="M210,30 L250,30 L240,10 L220,10 L210,30 Z" fill="white" opacity="0.6" />
  <path d="M200,80 L260,80 L250,90 L210,90 L200,80 Z" fill="white" opacity="0.6" />
  <path d="M190,130 L270,130 L260,140 L200,140 L190,130 Z" fill="white" opacity="0.6" />
  
  <!-- City silhouette -->
  <path d="M0,170 L50,150 L70,170 L90,140 L120,170 L140,150 L160,170 L180,170 L280,170 L300,150 L320,170 L350,140 L380,170 L400,160 L400,200 L0,200 Z" fill="#1F2937" opacity="0.5" />
  
  <!-- Stars/lights -->
  <circle cx="50" cy="50" r="1" fill="white" opacity="0.8" />
  <circle cx="120" cy="70" r="1" fill="white" opacity="0.8" />
  <circle cx="300" cy="60" r="1" fill="white" opacity="0.8" />
  <circle cx="350" cy="90" r="1" fill="white" opacity="0.8" />
  <circle cx="80" cy="40" r="1" fill="white" opacity="0.8" />
  <circle cx="250" cy="50" r="1" fill="white" opacity="0.8" />
  <circle cx="180" cy="80" r="1" fill="white" opacity="0.8" />
  <circle cx="370" cy="40" r="1" fill="white" opacity="0.8" />
  
  <!-- Text -->
  <text x="200" y="180" font-family="Arial" font-size="16" fill="white" text-anchor="middle" opacity="0.9">Paris, France</text>
</svg>